<?xml version="1.0" encoding="utf-8"?>
<svg width="800px" height="800px" viewBox="0 0 128 128" xmlns="http://www.w3.org/2000/svg" xmlns:xlink="http://www.w3.org/1999/xlink" aria-hidden="true" role="img" class="iconify iconify--noto" preserveAspectRatio="xMidYMid meet"><path d="M93.76 63.96l13.7-22.5c.28-.48.11-1.09-.36-1.37a.942.942 0 0 0-.44-.13h-27.5l-13.9-23.5a1.003 1.003 0 0 0-1.7 0l-13.8 23.5h-27.5a.997.997 0 0 0-1.03.97c-.01.19.04.37.13.53l13.8 22.5l-13.8 22.5a1.002 1.002 0 0 0 .9 1.5h27.6l13.8 23.5a1.003 1.003 0 0 0 1.7 0l13.8-23.5h27.6c.52.03.96-.37.98-.89a.953.953 0 0 0-.18-.61l-13.8-22.5zm4-18l-7.5 12.2l-7.5-12.2h15zm-11 18l-11 18h-22.6l-11-18l11-18h22.6l11 18zm-22.3-37.4l7.6 13.4h-15.2l7.6-13.4zm-33.3 19.4h15l-7.5 12.2l-7.5-12.2zm0 36l7.5-12.2l7.5 12.2h-15zm33.3 19.4l-7.6-13.4h15.3l-7.7 13.4zm25.8-31.6l7.5 12.2h-15l7.5-12.2z" fill="#779aad"></path></svg>